<svg xmlns="http://www.w3.org/2000/svg" version="1.1" xmlns:xlink="http://www.w3.org/1999/xlink" xmlns:svgjs="http://svgjs.dev/svgjs" width="100%" height="100%" viewBox="0 0 1000 600"><rect width="1000" height="600" x="0" y="0" fill="red"/><g><rect width="333.3333333333333" height="333.3333333333333" rx="13.333333333333334" ry="13.333333333333334" y="170.91184937403332" fill="#000000" transform="matrix(0.8406773383697379,0,0,0.8406773383697379,0,16.20539730363042)" x="148.6896209716797"/><path d="M371.3124506527299 323.87588195453594L371.3124506527299 351.2811587682974L285.3473641001167 351.2811587682974L285.3473641001167 323.87588195453594L371.3124506527299 323.87588195453594ZM383.45289901322354 262.5785201343964L383.45289901322354 289.7755049419728L274.4566677767327 289.7755049419728L274.4566677767327 412.5785205884369L247.2596829691562 412.5785205884369L247.2596829691562 276.2662805408353Q247.2596829691562 273.4394604568969 248.3011430000809 270.93995638267756Q249.34260303100558 268.4106963075747 251.1874750857865 266.53606825191025Q253.00259113968383 264.6614401962458 255.53185121478668 263.61998016532107Q258.03135528900594 262.5785201343964 260.9474433755951 262.5785201343964L260.9474433755951 262.5785201343964L383.45289901322354 262.5785201343964Z " fill="red" transform="matrix(0.8406773383697379,0,0,0.8406773383697379,0,16.20539730363042)"/><path d="M701.6685337898901 385.3815357808605L701.6685337898901 412.5785205884369L603.5332428758996 412.5785205884369Q599.7839867645707 412.5785205884369 595.4396106355705 411.68584056193Q591.0952345065704 410.79316053542317 586.8698823811044 408.91853247975865Q582.6147742547549 407.04390442409425 578.7464941398918 404.0385483348544Q574.8782140250286 401.062948246498 571.9026139366723 396.83759612103216Q568.9270138483159 392.6122439955662 567.1416537953023 386.98835982857287Q565.3562937422885 381.394231662463 565.3562937422885 374.4015714548257L565.3562937422885 374.4015714548257L565.3562937422885 300.7554692680076Q565.3562937422885 296.97645715579506 566.2489737687954 292.63208102679494Q567.1416537953023 288.2877048977947 569.0162818509667 284.06235277232884Q570.8909099066311 279.83700064686286 573.9260219967546 275.9687205319997Q576.961134086878 272.1004404171365 581.2162422132275 269.09508432789664Q585.4415943386934 266.1194842395404 590.9762105030361 264.3341241865266Q596.5405826682623 262.5785201343964 603.5332428758996 262.5785201343964L603.5332428758996 262.5785201343964L701.6685337898901 262.5785201343964L701.6685337898901 289.7755049419728L603.5332428758996 289.7755049419728Q598.2069187177419 289.7755049419728 595.3800986338034 292.60232502591134Q592.5532785498649 295.39938910896626 592.5532785498649 300.9637612741925L592.5532785498649 300.9637612741925L592.5532785498649 374.4015714548257Q592.5532785498649 379.6386276103328 595.4396106355705 382.4952036951549Q598.2961867203926 385.3815357808605 603.5332428758996 385.3815357808605L603.5332428758996 385.3815357808605L701.6685337898901 385.3815357808605ZM877.3182070055619 295.6374371160348L877.3182070055619 312.985185631152Q877.3182070055619 322.29881390770714 874.997238936644 329.6187901250635Q872.7060268686097 336.93876634242 868.7782347519793 342.53289450852986Q864.8504426353489 348.1270226746397 859.7324104833762 352.11432679303715Q854.6143783314034 356.1016309114346 849.0202501652935 358.660646987421Q843.4261219991837 361.2196630634074 837.7129698295397 362.35039109698283Q831.9998176598955 363.51087513144176 827.000809511457 363.51087513144176L827.000809511457 363.51087513144176L883.8050151981785 412.5785205884369L841.7300299488206 412.5785205884369L785.0448482656333 363.51087513144176L765.465399684249 363.51087513144176L765.465399684249 336.3138903238652L827.000809511457 336.3138903238652Q832.1188416634299 335.89730631149536 836.3441937888957 334.1714582602487Q840.5993019152453 332.44561020900204 843.6641700062522 329.52952212241286Q846.7587940981427 326.5836780349402 848.4251301476222 322.4475939121249Q850.1212221979854 318.3115097893097 850.1212221979854 312.985185631152L850.1212221979854 312.985185631152L850.1212221979854 295.8457291222197Q850.1212221979854 293.5247610533018 849.5261021803141 292.33452101795933Q848.9607381635263 291.1145249817332 848.0680581370195 290.5491609649455Q847.1753781105126 289.98379694815776 846.193430081355 289.86477294462355Q845.181726051314 289.7755049419728 844.3485580265741 289.7755049419728L844.3485580265741 289.7755049419728L754.6044593617485 289.7755049419728L754.6044593617485 412.5785205884369L727.4074745541719 412.5785205884369L727.4074745541719 276.2662805408353Q727.4074745541719 273.4394604568969 728.4489345850967 270.93995638267756Q729.4903946160214 268.4106963075747 731.3352666708023 266.53606825191025Q733.1503827246996 264.6614401962458 735.6796427998025 263.61998016532107Q738.1791468740217 262.5785201343964 741.0952349606109 262.5785201343964L741.0952349606109 262.5785201343964L844.3485580265741 262.5785201343964Q853.4538942969444 262.5785201343964 859.7324104833762 265.85168023158826Q866.0109266698079 269.1545963296638 869.9387187864382 274.12384847721876Q873.8665109030685 279.0931006247738 875.5923589543153 284.83600879530144Q877.3182070055619 290.6086729667126 877.3182070055619 295.6374371160348L877.3182070055619 295.6374371160348ZM1028.6869835002462 323.87588195453594L1028.6869835002462 351.2811587682974L942.6921409467494 351.2811587682974L942.6921409467494 323.87588195453594L1028.6869835002462 323.87588195453594ZM1040.82743186074 262.5785201343964L1040.82743186074 289.7755049419728L931.8014446233655 289.7755049419728L931.8014446233655 412.5785205884369L904.604459815789 412.5785205884369L904.604459815789 276.2662805408353Q904.604459815789 273.4394604568969 905.6459198467137 270.93995638267756Q906.717135878522 268.4106963075747 908.5322519324193 266.53606825191025Q910.3771239872002 264.6614401962458 912.8766280614195 263.61998016532107Q915.3761321356388 262.5785201343964 918.3219762231115 262.5785201343964L918.3219762231115 262.5785201343964L1040.82743186074 262.5785201343964Z " fill="#000000" transform="matrix(0.8406773383697379,0,0,0.8406773383697379,0,16.20539730363042)"/></g></svg>